<?xml version="1.0" encoding="UTF-8" standalone="no"?>
<!DOCTYPE svg PUBLIC "-//W3C//DTD SVG 1.1//EN" "http://www.w3.org/Graphics/SVG/1.1/DTD/svg11.dtd">
<svg width="100%" height="100%" viewBox="0 0 764 764" version="1.1" xmlns="http://www.w3.org/2000/svg" xmlns:xlink="http://www.w3.org/1999/xlink" xml:space="preserve" xmlns:serif="http://www.serif.com/" style="fill-rule:evenodd;clip-rule:evenodd;stroke-linejoin:round;stroke-miterlimit:2;">
    <g transform="matrix(1,0,0,1,-61.241,-61.241)">
        <g transform="matrix(1.16047,0,0,1.16047,-671.173,-208.726)">
            <g transform="matrix(0.823732,0,0,0.823732,165.892,104.793)">
                <path d="M964.036,155.2C1184.38,155.2 1363.27,334.092 1363.27,554.436C1363.27,774.781 1184.38,953.673 964.036,953.673C743.692,953.673 564.8,774.781 564.8,554.436C564.8,334.092 743.692,155.2 964.036,155.2ZM964.036,228.473C784.132,228.473 638.073,374.532 638.073,554.436C638.073,734.34 784.132,880.4 964.036,880.4C1143.94,880.4 1290,734.34 1290,554.436C1290,374.532 1143.94,228.473 964.036,228.473ZM893.266,511.127C889.082,511.127 884.967,510.709 880.922,509.872C876.877,509.035 873.181,507.57 869.833,505.478C866.486,503.386 863.696,500.805 861.464,497.737C859.233,494.529 857.559,491.042 856.443,487.276C855.327,483.37 854.769,479.325 854.769,475.141C854.909,470.956 855.327,466.702 856.025,462.378L860.209,437.271C860.767,433.924 861.604,430.506 862.72,427.019C863.975,423.532 865.649,420.254 867.741,417.186C869.833,414.117 872.344,411.397 875.273,409.026C878.202,406.515 881.341,404.493 884.688,402.959C888.175,401.424 891.662,400.378 895.149,399.82C898.636,399.262 902.124,398.983 905.611,398.983C909.795,398.983 913.91,399.402 917.955,400.239C922,401.076 925.696,402.54 929.044,404.632C932.391,406.725 935.181,409.375 937.413,412.583C939.784,415.651 941.458,419.138 942.434,423.044C943.55,426.949 944.108,430.994 944.108,435.179C944.108,439.224 943.759,443.408 943.062,447.732L938.877,472.839C938.319,476.187 937.413,479.604 936.157,483.091C934.902,486.578 933.228,489.856 931.136,492.925C929.044,495.993 926.533,498.783 923.604,501.294C920.675,503.665 917.536,505.617 914.189,507.152C910.841,508.686 907.354,509.732 903.728,510.29C900.241,510.848 896.753,511.127 893.266,511.127ZM893.266,487.276C895.498,487.276 897.73,486.787 899.962,485.811C902.193,484.695 904.007,483.231 905.401,481.417C906.936,479.604 908.052,477.651 908.749,475.559C909.586,473.327 910.214,471.096 910.632,468.864L914.816,443.757C915.095,442.223 915.235,440.688 915.235,439.154C915.374,437.62 915.374,436.155 915.235,434.76C915.235,433.226 915.026,431.762 914.607,430.367C914.328,428.972 913.77,427.717 912.933,426.601C912.236,425.345 911.19,424.439 909.795,423.881C908.54,423.183 907.145,422.835 905.611,422.835C903.379,422.835 901.147,423.393 898.915,424.509C896.823,425.485 895.01,426.88 893.476,428.693C891.941,430.506 890.756,432.529 889.919,434.76C889.221,436.853 888.733,439.015 888.454,441.246L884.27,466.353C883.991,467.888 883.782,469.422 883.642,470.956C883.503,472.49 883.503,474.025 883.642,475.559C883.782,476.954 883.991,478.349 884.27,479.744C884.688,481.138 885.246,482.463 885.944,483.719C886.78,484.835 887.827,485.741 889.082,486.439C890.337,486.997 891.732,487.276 893.266,487.276ZM956.661,509.453L974.654,400.657L1003.53,400.657L1000.6,417.813C1001.99,415.303 1003.67,412.862 1005.62,410.491C1007.57,408.119 1009.66,406.097 1011.9,404.423C1014.27,402.61 1016.85,401.285 1019.64,400.448C1022.57,399.471 1025.36,398.983 1028.01,398.983C1030.8,398.983 1033.38,399.471 1035.75,400.448C1038.12,401.424 1040,402.959 1041.4,405.051C1042.93,407.003 1044.05,409.235 1044.74,411.746C1045.44,414.257 1045.86,416.837 1046,419.487C1046.14,422.137 1046.07,424.857 1045.79,427.647C1045.51,430.297 1045.16,432.947 1044.74,435.597L1015.87,435.597C1016.15,434.203 1016.29,432.877 1016.29,431.622C1016.43,430.227 1016.36,428.902 1016.08,427.647C1015.8,426.252 1015.17,425.136 1014.2,424.299C1013.36,423.323 1012.25,422.835 1010.85,422.835C1009.18,422.835 1007.57,423.323 1006.04,424.299C1004.64,425.276 1003.46,426.461 1002.48,427.856C1001.5,429.251 1000.67,430.785 999.97,432.459C999.273,433.993 998.645,435.528 998.087,437.062C997.529,438.596 997.041,440.2 996.623,441.874C996.344,443.408 996.065,445.012 995.786,446.686L985.534,509.453L956.661,509.453ZM1157.83,709.889C1153.51,709.889 1149.25,709.471 1145.07,708.634C1141.02,707.937 1137.26,706.611 1133.77,704.659C1130.42,702.566 1127.56,699.916 1125.19,696.708C1122.82,693.5 1121.01,690.013 1119.75,686.247C1118.63,682.342 1118.08,678.297 1118.08,674.112C1118.08,669.788 1118.43,665.464 1119.12,661.14L1123.31,636.033C1123.87,632.686 1124.7,629.269 1125.82,625.781C1127.07,622.294 1128.75,619.017 1130.84,615.948C1132.93,612.879 1135.44,610.159 1138.37,607.788C1141.44,605.278 1144.65,603.255 1148,601.721C1151.34,600.186 1154.76,599.14 1158.25,598.582C1161.87,598.024 1165.43,597.746 1168.92,597.746C1172.68,597.746 1176.38,598.024 1180.01,598.582C1183.63,599.14 1186.98,600.117 1190.05,601.512C1193.26,602.906 1196.12,604.789 1198.63,607.161C1201.28,609.532 1203.3,612.321 1204.69,615.53C1206.23,618.598 1207.28,621.946 1207.83,625.572C1208.53,629.199 1208.53,632.825 1207.83,636.452C1207.41,639.66 1206.44,642.798 1204.9,645.867C1203.37,648.796 1201.42,651.516 1199.05,654.027C1196.82,656.537 1194.16,658.699 1191.1,660.513C1188.03,662.186 1184.89,663.511 1181.68,664.488C1178.61,665.464 1175.47,666.092 1172.27,666.371C1169.06,666.65 1165.92,666.789 1162.85,666.789L1154.06,666.789C1151.27,666.65 1148.41,666.441 1145.49,666.162C1145.07,668.672 1144.93,671.253 1145.07,673.903C1145.35,676.414 1146.04,678.785 1147.16,681.016C1148.41,683.109 1150.16,684.713 1152.39,685.829C1154.62,686.944 1157.06,687.502 1159.71,687.502C1161.81,687.502 1163.97,687.084 1166.2,686.247C1168.43,685.41 1170.38,684.225 1172.06,682.69C1173.87,681.016 1175.33,679.203 1176.45,677.25C1177.71,675.158 1178.68,673.066 1179.38,670.974L1203.23,679.343C1201.28,683.806 1198.77,688.06 1195.7,692.105C1192.63,696.011 1189,699.358 1184.82,702.148C1180.77,704.938 1176.38,706.96 1171.64,708.215C1166.9,709.331 1162.29,709.889 1157.83,709.889ZM1165.15,644.821C1166.97,644.821 1168.71,644.612 1170.38,644.193C1172.2,643.775 1173.87,643.077 1175.4,642.101C1176.94,640.985 1178.19,639.66 1179.17,638.126C1180.29,636.591 1180.98,634.918 1181.26,633.104C1181.54,631.291 1181.4,629.547 1180.84,627.874C1180.43,626.2 1179.66,624.735 1178.54,623.48C1177.43,622.225 1175.96,621.388 1174.15,620.969C1172.48,620.411 1170.73,620.132 1168.92,620.132C1166.55,620.132 1164.18,620.69 1161.81,621.806C1159.43,622.783 1157.34,624.247 1155.53,626.2C1153.85,628.153 1152.6,630.315 1151.76,632.686C1150.92,635.057 1150.3,637.428 1149.88,639.799L1149.25,643.775C1150.65,643.914 1151.97,644.054 1153.23,644.193C1154.48,644.193 1155.74,644.263 1156.99,644.402C1158.39,644.402 1159.78,644.472 1161.18,644.612C1162.57,644.751 1163.9,644.821 1165.15,644.821ZM1068.7,709.889C1065.35,709.889 1062.01,709.541 1058.66,708.843C1055.45,708.285 1052.45,707.169 1049.66,705.496C1046.87,703.822 1044.5,701.73 1042.55,699.219C1040.6,696.708 1039.13,693.919 1038.15,690.85C1037.18,687.642 1036.69,684.364 1036.69,681.016C1036.69,677.529 1037.04,674.042 1037.74,670.555L1053.01,578.288L1032.51,578.288L1032.3,554.436L1085.86,554.436L1065.98,674.531C1065.84,675.786 1065.7,677.111 1065.56,678.506C1065.56,679.761 1065.77,681.016 1066.19,682.272C1066.61,683.388 1067.31,684.294 1068.28,684.992C1069.4,685.689 1070.58,686.038 1071.84,686.038C1073.51,686.038 1075.12,685.619 1076.65,684.782C1078.33,683.806 1079.72,682.62 1080.84,681.226C1081.95,679.831 1082.79,678.297 1083.35,676.623C1084.04,674.949 1084.53,673.275 1084.81,671.601L1084.81,671.183L1108.03,672.02L1108.03,672.857C1107.48,675.925 1106.64,678.994 1105.52,682.063C1104.55,685.131 1103.15,688.13 1101.34,691.059C1099.66,693.988 1097.64,696.708 1095.27,699.219C1092.9,701.59 1090.25,703.613 1087.32,705.286C1084.53,706.96 1081.53,708.146 1078.33,708.843C1075.12,709.541 1071.91,709.889 1068.7,709.889ZM977.897,586.866C975.945,586.866 973.992,586.657 972.039,586.238C970.086,585.82 968.273,585.122 966.599,584.146C965.065,583.03 963.74,581.775 962.624,580.38C961.508,578.846 960.601,577.172 959.904,575.359C959.346,573.406 958.997,571.453 958.858,569.5C958.858,567.548 958.997,565.525 959.276,563.433C959.695,561.341 960.392,559.388 961.369,557.575C962.485,555.622 963.879,554.018 965.553,552.762C967.366,551.368 969.319,550.461 971.411,550.043C973.643,549.485 975.805,549.206 977.897,549.206C979.85,549.206 981.803,549.415 983.756,549.833C985.708,550.252 987.452,551.019 988.986,552.135C990.52,553.111 991.846,554.367 992.961,555.901C994.217,557.296 995.123,558.969 995.681,560.922C996.239,562.735 996.518,564.618 996.518,566.571C996.658,568.524 996.588,570.546 996.309,572.639C996.03,574.731 995.333,576.753 994.217,578.706C993.101,580.519 991.636,582.124 989.823,583.518C988.149,584.774 986.266,585.68 984.174,586.238C982.082,586.657 979.99,586.866 977.897,586.866ZM976.642,709.889C973.294,709.889 969.947,709.541 966.599,708.843C963.391,708.285 960.392,707.169 957.603,705.496C954.813,703.822 952.442,701.73 950.489,699.219C948.536,696.708 947.072,693.919 946.095,690.85C945.119,687.642 944.631,684.364 944.631,681.016C944.631,677.529 944.979,674.042 945.677,670.555L953.418,623.271L932.914,623.271L932.914,599.419L986.475,599.419L973.922,674.531C973.783,675.786 973.643,677.111 973.504,678.506C973.504,679.761 973.713,681.016 974.131,682.272C974.55,683.388 975.247,684.294 976.224,684.992C977.339,685.689 978.525,686.038 979.78,686.038C981.454,686.038 983.058,685.619 984.592,684.782C986.266,683.806 987.661,682.62 988.777,681.226C989.893,679.831 990.73,678.297 991.288,676.623C991.985,674.949 992.473,673.275 992.752,671.601L992.752,671.183L1015.98,672.02L1015.98,672.857C1015.42,675.925 1014.58,678.994 1013.47,682.063C1012.49,685.131 1011.09,688.13 1009.28,691.059C1007.61,693.988 1005.59,696.708 1003.21,699.219C1000.84,701.59 998.192,703.613 995.263,705.286C992.473,706.96 989.474,708.146 986.266,708.843C983.058,709.541 979.85,709.889 976.642,709.889ZM820.143,708.215L845.459,554.436L874.332,554.436L864.917,611.763C866.311,609.671 867.776,607.788 869.31,606.114C870.984,604.301 872.797,602.767 874.75,601.512C876.842,600.117 879.004,599.14 881.236,598.582C883.468,598.024 885.7,597.746 887.931,597.746C891.558,597.746 894.975,598.443 898.183,599.838C901.391,601.093 904.041,603.046 906.134,605.696C908.226,608.346 909.76,611.345 910.737,614.693C911.852,617.901 912.55,621.318 912.829,624.945C913.108,628.432 913.108,631.988 912.829,635.615C912.55,639.242 912.131,642.868 911.573,646.495L901.322,708.215L872.449,708.215L883.328,642.519C883.607,640.985 883.817,639.52 883.956,638.126C884.095,636.731 884.095,635.336 883.956,633.941C883.956,632.407 883.817,630.942 883.538,629.547C883.398,628.153 882.98,626.897 882.282,625.781C881.585,624.526 880.678,623.55 879.562,622.852C878.446,622.015 877.121,621.597 875.587,621.597C873.774,621.597 871.891,622.015 869.938,622.852C868.125,623.55 866.59,624.666 865.335,626.2C864.08,627.734 863.034,629.408 862.197,631.221C861.499,633.035 861.011,634.848 860.732,636.661L849.016,708.215L820.143,708.215ZM737.813,554.436L737.813,530.585L753.087,530.585C755.318,530.585 757.55,530.097 759.782,529.12C762.014,528.283 763.966,526.889 765.64,524.936C767.314,523.123 768.5,521.1 769.197,518.868C770.034,516.776 770.592,514.614 770.871,512.382L784.261,432.041L759.991,432.041L760.2,408.189L788.236,408.189L790.538,393.962C791.096,390.475 792.002,386.988 793.258,383.501C794.513,380.014 796.187,376.736 798.279,373.667C800.371,370.599 802.952,367.879 806.02,365.508C809.089,362.997 812.297,361.044 815.645,359.649C818.992,358.115 822.409,357.069 825.896,356.511C829.523,355.953 833.08,355.674 836.567,355.674L851.84,355.674L852.049,379.525L836.776,379.525C834.544,379.525 832.243,380.014 829.872,380.99C827.64,381.827 825.687,383.222 824.013,385.175C822.479,386.988 821.294,389.01 820.457,391.242C819.759,393.334 819.201,395.496 818.783,397.728L817.109,408.189L841.379,408.189L841.17,432.041L813.134,432.041L799.116,516.148C798.558,519.635 797.651,523.123 796.396,526.61C795.28,530.097 793.676,533.374 791.584,536.443C789.492,539.512 786.911,542.232 783.843,544.603C780.774,547.113 777.496,549.066 774.009,550.461C770.661,551.995 767.174,553.041 763.548,553.599C760.061,554.157 756.574,554.436 753.087,554.436L737.813,554.436ZM740.01,708.215L719.716,708.215L719.925,599.419L748.17,599.419L737.081,677.25L752.773,629.966L772.858,629.966L772.649,677.25L787.504,599.419L815.749,599.419L779.972,708.215L759.677,708.215L758.422,656.537L740.01,708.215ZM1110.86,511.127C1107.37,511.127 1103.95,510.639 1100.61,509.662C1097.26,508.686 1094.33,507.152 1091.82,505.06C1089.31,502.828 1087.29,500.247 1085.75,497.318C1084.36,494.25 1083.31,491.042 1082.61,487.694C1081.92,484.207 1081.5,480.72 1081.36,477.233C1081.22,473.746 1081.5,470.189 1082.19,466.562C1082.75,462.796 1083.8,459.1 1085.33,455.474C1086.87,451.708 1088.75,448.151 1090.98,444.803C1093.21,441.456 1095.8,438.387 1098.72,435.597C1101.79,432.668 1104.93,430.018 1108.14,427.647L1104.79,418.023C1103.67,414.815 1102.77,411.537 1102.07,408.189C1101.37,404.842 1100.89,401.424 1100.61,397.937C1100.33,394.311 1100.54,390.684 1101.24,387.058C1101.93,382.734 1103.26,378.479 1105.21,374.295C1107.3,370.11 1109.95,366.414 1113.16,363.206C1116.51,359.998 1120.41,357.697 1124.88,356.302C1129.34,354.767 1133.66,354 1137.85,354C1141.48,354 1144.96,354.419 1148.31,355.256C1151.66,355.953 1154.59,357.278 1157.1,359.231C1159.75,361.044 1161.98,363.346 1163.79,366.135C1165.61,368.925 1166.93,371.924 1167.77,375.132C1168.6,378.34 1169.09,381.687 1169.23,385.175C1169.51,388.662 1169.37,392.149 1168.81,395.636C1168.12,399.681 1166.93,403.656 1165.26,407.561C1163.58,411.327 1161.49,414.884 1158.98,418.232C1156.47,421.579 1153.54,424.718 1150.19,427.647C1146.99,430.437 1143.71,433.087 1140.36,435.597L1140.36,436.225C1140.5,436.365 1140.64,436.574 1140.78,436.853L1147.05,454.009L1154.8,440.2L1180.53,440.2L1161.07,474.722C1160.51,475.977 1159.89,477.233 1159.19,478.488C1158.49,479.604 1157.86,480.72 1157.31,481.836L1167.14,509.453L1138.06,509.453L1133.87,498.364C1131.64,501.572 1128.71,504.362 1125.09,506.733C1121.6,509.105 1118.04,510.499 1114.42,510.918L1113.16,511.127L1110.86,511.127ZM1130.94,411.118L1131.15,411.118C1133.8,408.468 1135.97,405.539 1137.64,402.331C1139.31,399.123 1140.43,395.775 1140.99,392.288C1141.27,391.312 1141.4,390.405 1141.4,389.568C1141.55,388.592 1141.62,387.615 1141.62,386.639C1141.62,385.663 1141.55,384.686 1141.4,383.71C1141.4,382.734 1141.34,381.827 1141.2,380.99C1141.06,380.014 1140.71,379.177 1140.15,378.479C1139.59,377.642 1138.83,377.224 1137.85,377.224C1136.45,377.224 1135.2,377.782 1134.08,378.898C1132.97,380.014 1132.06,381.269 1131.36,382.664C1130.66,383.919 1130.11,385.244 1129.69,386.639C1129.27,388.034 1128.99,389.429 1128.85,390.824C1128.15,394.45 1128.02,397.937 1128.43,401.285C1128.99,404.632 1129.83,407.91 1130.94,411.118ZM1120.69,487.903C1122.09,487.903 1123.48,487.624 1124.88,487.066C1126.41,486.369 1127.81,485.462 1129.06,484.346L1117.76,453.591C1115.67,455.962 1113.93,458.542 1112.53,461.332C1111.28,463.982 1110.37,466.702 1109.81,469.492C1109.53,471.584 1109.46,473.746 1109.6,475.977C1109.74,478.07 1110.16,480.022 1110.86,481.836C1111.7,483.649 1112.95,485.114 1114.62,486.229C1116.44,487.345 1118.46,487.903 1120.69,487.903ZM756.81,289.208C757.768,288.476 758.658,287.656 759.481,286.747C760.303,285.838 760.964,284.828 761.463,283.717C761.935,282.57 762.219,281.398 762.316,280.201C762.448,278.977 762.371,277.773 762.084,276.588C761.833,275.376 761.412,274.237 760.823,273.171C760.268,272.078 759.626,271.052 758.894,270.094L745.282,252.268C744.551,251.311 743.731,250.421 742.822,249.598C741.949,248.749 740.961,248.043 739.858,247.481C738.79,246.892 737.649,246.501 736.433,246.306C735.252,246.084 734.061,246.067 732.857,246.256C731.626,246.41 730.464,246.764 729.371,247.318C728.278,247.872 727.252,248.514 726.295,249.246C725.337,249.977 724.447,250.797 723.624,251.706C722.802,252.615 722.155,253.643 721.683,254.789C721.183,255.901 720.868,257.068 720.735,258.293C720.639,259.49 720.716,260.694 720.968,261.906C721.255,263.091 721.675,264.23 722.229,265.323C722.819,266.389 723.479,267.401 724.211,268.359L737.823,286.185C738.554,287.143 739.356,288.046 740.23,288.896C741.139,289.718 742.127,290.424 743.194,291.013C744.297,291.575 745.439,291.966 746.619,292.188C747.835,292.383 749.058,292.404 750.289,292.25C751.492,292.061 752.64,291.69 753.734,291.136C754.827,290.582 755.852,289.939 756.81,289.208ZM753.235,284.525C752.454,285.121 751.57,285.544 750.581,285.793C749.6,285.98 748.636,285.931 747.687,285.644C746.774,285.331 745.944,284.869 745.198,284.26C744.46,283.588 743.793,282.861 743.197,282.081L729.585,264.255C728.989,263.475 728.477,262.658 728.05,261.805C727.632,260.889 727.392,259.949 727.33,258.985C727.303,257.995 727.523,257.069 727.989,256.208C728.463,255.284 729.09,254.524 729.87,253.928C730.651,253.333 731.531,252.941 732.512,252.754C733.5,252.504 734.451,252.536 735.365,252.85C736.313,253.136 737.157,253.615 737.895,254.287C738.641,254.897 739.312,255.592 739.908,256.372L753.52,274.198C754.116,274.979 754.623,275.827 755.042,276.743C755.469,277.596 755.696,278.518 755.722,279.509C755.784,280.472 755.578,281.416 755.104,282.339C754.638,283.2 754.015,283.929 753.235,284.525ZM885.344,226.415C886.469,226.13 887.507,225.684 888.458,225.075C889.453,224.456 890.268,223.675 890.905,222.731C891.53,221.745 891.977,220.688 892.245,219.562C892.513,218.435 892.64,217.298 892.626,216.151L894.495,223.551L900.467,222.042L893.843,195.817L881.51,198.933L882.953,204.645L888.73,203.186L890.632,210.716C890.861,211.624 891.01,212.577 891.077,213.572C891.134,214.525 891.001,215.456 890.678,216.366C890.356,217.277 889.816,218.057 889.06,218.709C888.347,219.349 887.515,219.79 886.563,220.03C885.61,220.27 884.647,220.284 883.672,220.069C882.741,219.844 881.917,219.408 881.201,218.76C880.485,218.112 879.925,217.356 879.523,216.491C879.109,215.583 878.788,214.674 878.558,213.765L873.066,192.019C872.825,191.067 872.677,190.115 872.62,189.163C872.553,188.167 872.68,187.214 873.003,186.304C873.326,185.394 873.87,184.635 874.638,184.026C875.394,183.375 876.248,182.929 877.2,182.689C878.065,182.47 878.948,182.408 879.846,182.504C880.745,182.599 881.541,182.927 882.236,183.488C882.962,183.995 883.537,184.633 883.962,185.4C884.429,186.157 884.772,186.968 884.99,187.834L885.056,188.093L891.612,186.437L891.497,185.983C891.213,184.858 890.805,183.787 890.272,182.771C889.739,181.754 889.093,180.836 888.333,180.015C887.562,179.151 886.667,178.433 885.648,177.862C884.673,177.279 883.627,176.876 882.511,176.651C881.396,176.427 880.275,176.365 879.15,176.465C878.013,176.522 876.882,176.692 875.757,176.976C874.589,177.271 873.453,177.696 872.35,178.251C871.236,178.763 870.231,179.431 869.335,180.256C868.481,181.07 867.78,182.03 867.231,183.135C866.67,184.197 866.289,185.329 866.086,186.532C865.872,187.69 865.805,188.881 865.884,190.104C866.006,191.317 866.214,192.507 866.509,193.675L872.002,215.421C872.264,216.46 872.575,217.509 872.935,218.569C873.327,219.575 873.801,220.537 874.355,221.456C874.952,222.364 875.631,223.228 876.391,224.049C877.183,224.816 878.056,225.447 879.01,225.943C879.953,226.395 880.982,226.642 882.097,226.682C883.223,226.766 884.305,226.677 885.344,226.415ZM775.922,274.651L784.994,269.082C786.135,268.382 787.218,267.586 788.243,266.695C789.267,265.805 790.141,264.797 790.864,263.672C791.626,262.524 792.192,261.312 792.561,260.038C792.908,258.725 793.044,257.411 792.969,256.095C792.871,254.741 792.586,253.423 792.114,252.142C791.642,250.861 791.055,249.65 790.355,248.508L780.022,231.676C779.322,230.535 778.507,229.464 777.578,228.463C776.649,227.462 775.615,226.63 774.476,225.968C773.313,225.268 772.079,224.794 770.775,224.547C769.448,224.262 768.1,224.199 766.731,224.359C765.401,224.495 764.107,224.818 762.849,225.328C761.591,225.838 760.391,226.444 759.25,227.144L750.178,232.713L775.922,274.651ZM778.602,266.093L759.023,234.197L762.332,232.165C763.017,231.745 763.718,231.394 764.434,231.111C765.151,230.828 765.9,230.682 766.681,230.675C767.476,230.605 768.254,230.678 769.014,230.892C769.774,231.106 770.474,231.436 771.114,231.881C771.768,232.265 772.363,232.764 772.897,233.379C773.408,233.956 773.862,234.567 774.259,235.214L784.592,252.046C784.989,252.693 785.34,253.393 785.647,254.148C785.929,254.865 786.106,255.621 786.175,256.416C786.259,257.15 786.224,257.905 786.071,258.68C785.919,259.454 785.643,260.2 785.244,260.916C784.861,261.57 784.38,262.153 783.804,262.664C783.227,263.175 782.597,263.641 781.912,264.061L778.602,266.093ZM1023.38,935.632L1027.63,918.622L1036.63,933.666L1043.85,932.594L1029.83,909.766L1036.62,883.918L1029.4,884.99L1025.16,901.999L1016.16,886.956L1008.94,888.027L1022.96,910.855L1016.17,936.703L1023.38,935.632ZM841.083,240.285L847.437,237.973L840.706,219.476C840.172,218.008 839.617,216.548 839.041,215.095C838.465,213.642 837.847,212.205 837.186,210.782C836.526,209.36 835.845,207.945 835.143,206.539L833.038,202.318L858.447,233.967L864.991,231.586L848.163,185.343L841.809,187.655L848.54,206.152C849.074,207.62 849.629,209.081 850.205,210.533C850.781,211.986 851.4,213.424 852.06,214.846C852.72,216.268 853.401,217.683 854.103,219.09L856.208,223.311L830.799,191.662L824.255,194.043L841.083,240.285ZM1251.28,813.329C1252.03,812.45 1252.69,811.515 1253.25,810.525C1253.85,809.563 1254.29,808.533 1254.59,807.435C1254.89,806.336 1254.99,805.221 1254.91,804.088C1254.86,802.921 1254.63,801.814 1254.24,800.767C1253.81,799.691 1253.26,798.688 1252.59,797.756C1251.92,796.825 1251.14,795.98 1250.27,795.223L1249.91,794.917L1245.5,800.039L1245.7,800.214C1246.37,800.796 1246.95,801.466 1247.41,802.223C1247.91,802.945 1248.24,803.76 1248.4,804.665C1248.56,805.508 1248.48,806.353 1248.16,807.199C1247.85,808.045 1247.4,808.807 1246.81,809.483C1246.17,810.227 1245.41,810.806 1244.52,811.22C1243.6,811.604 1242.66,811.737 1241.7,811.618C1240.74,811.5 1239.85,811.202 1239.03,810.725C1238.16,810.219 1237.36,809.646 1236.62,809.005L1219.63,794.362C1218.88,793.721 1218.22,793.026 1217.62,792.279C1217,791.503 1216.55,790.65 1216.29,789.719C1216.04,788.789 1216.05,787.855 1216.32,786.916C1216.57,785.949 1217.01,785.093 1217.65,784.349C1218.24,783.673 1218.92,783.116 1219.71,782.677C1220.5,782.239 1221.34,782.05 1222.23,782.111C1223.12,782.108 1223.96,782.299 1224.75,782.684C1225.56,783.035 1226.31,783.502 1226.99,784.084L1227.19,784.259L1231.6,779.137L1231.25,778.831C1230.37,778.074 1229.42,777.432 1228.4,776.906C1227.38,776.381 1226.32,776 1225.23,775.765C1224.1,775.5 1222.96,775.427 1221.79,775.545C1220.66,775.629 1219.57,775.899 1218.53,776.356C1217.49,776.813 1216.54,777.406 1215.67,778.135C1214.78,778.834 1213.95,779.624 1213.19,780.503C1212.4,781.416 1211.72,782.416 1211.13,783.504C1210.52,784.562 1210.08,785.687 1209.82,786.877C1209.59,788.033 1209.56,789.222 1209.75,790.442C1209.9,791.634 1210.24,792.779 1210.76,793.88C1211.26,794.951 1211.88,795.965 1212.65,796.921C1213.45,797.843 1214.3,798.697 1215.21,799.484L1232.2,814.127C1233.12,814.914 1234.09,815.633 1235.12,816.284C1236.17,816.902 1237.29,817.389 1238.45,817.746C1239.59,818.073 1240.77,818.239 1242,818.242C1243.2,818.216 1244.36,818.004 1245.47,817.605C1246.61,817.173 1247.65,816.573 1248.61,815.806C1249.6,815.068 1250.49,814.242 1251.28,813.329ZM1125.46,906.77L1146.79,896.282L1144.19,890.995L1128.87,898.529L1109.76,859.657L1103.75,862.612L1125.46,906.77ZM1089.79,920.691L1113.16,912.083L1111.12,906.554L1094.1,912.826L1088.31,897.119L1101.76,892.167L1099.72,886.638L1086.27,891.591L1081.16,877.706L1098.18,871.435L1096.15,865.907L1072.78,874.515L1089.79,920.691ZM1187.96,870.757L1207.69,855.563L1204.1,850.895L1189.72,861.963L1179.51,848.701L1190.86,839.96L1187.27,835.292L1175.92,844.032L1166.89,832.308L1181.27,821.24L1177.67,816.571L1157.94,831.765L1187.96,870.757ZM1158.27,889.902L1178.44,877.327L1175.32,872.328L1160.83,881.36L1137.91,844.601L1132.23,848.143L1158.27,889.902ZM1266.58,793.775L1280.8,773.33L1275.96,769.965L1265.6,784.859L1251.86,775.3L1260.05,763.539L1255.21,760.174L1247.03,771.935L1234.88,763.485L1245.24,748.591L1240.4,745.227L1226.18,765.672L1266.58,793.775ZM1216.31,848.227L1221.22,843.581L1207.7,829.278C1206.63,828.142 1205.54,827.023 1204.43,825.918C1203.33,824.814 1202.19,823.74 1201.02,822.696C1199.85,821.653 1198.66,820.625 1197.46,819.613L1193.85,816.575L1229.74,835.532L1234.8,830.749L1200.99,794.99L1196.08,799.635L1209.6,813.939C1210.67,815.074 1211.76,816.194 1212.87,817.298C1213.97,818.403 1215.11,819.477 1216.28,820.52C1217.45,821.563 1218.64,822.591 1219.84,823.604L1223.45,826.641L1187.56,807.684L1182.5,812.468L1216.31,848.227ZM981.167,938.745L1006.05,937.604L1005.78,931.718L987.652,932.549L986.885,915.829L1001.2,915.173L1000.93,909.287L986.615,909.944L985.937,895.163L1004.06,894.332L1003.79,888.446L978.912,889.587L981.167,938.745ZM728.606,313.134C729.451,312.339 730.203,311.478 730.863,310.55C731.553,309.656 732.104,308.678 732.515,307.617C732.927,306.556 733.149,305.457 733.184,304.322C733.251,303.155 733.143,302.031 732.86,300.949C732.547,299.834 732.105,298.779 731.536,297.783C730.966,296.786 730.284,295.866 729.488,295.021L729.167,294.679L724.242,299.313L724.426,299.508C725.038,300.158 725.537,300.884 725.923,301.685C726.341,302.456 726.584,303.3 726.651,304.218C726.72,305.072 726.552,305.904 726.149,306.713C725.745,307.521 725.218,308.231 724.568,308.843C723.853,309.516 723.033,310.012 722.108,310.331C721.152,310.618 720.203,310.652 719.263,310.434C718.322,310.216 717.465,309.827 716.693,309.267C715.89,308.674 715.152,308.02 714.479,307.305L699.109,290.971C698.436,290.255 697.844,289.495 697.331,288.69C696.789,287.853 696.437,286.958 696.276,286.006C696.116,285.054 696.223,284.126 696.598,283.221C696.942,282.284 697.472,281.48 698.187,280.807C698.837,280.195 699.578,279.712 700.41,279.359C701.241,279.005 702.097,278.905 702.977,279.058C703.858,279.148 704.67,279.425 705.414,279.89C706.19,280.324 706.884,280.866 707.496,281.516L707.68,281.711L712.604,277.077L712.283,276.736C711.488,275.891 710.61,275.154 709.651,274.524C708.691,273.895 707.68,273.407 706.617,273.059C705.523,272.678 704.392,272.486 703.224,272.482C702.088,272.447 700.978,272.603 699.894,272.949C698.81,273.295 697.801,273.785 696.866,274.42C695.9,275.022 694.995,275.721 694.149,276.516C693.272,277.342 692.486,278.265 691.792,279.286C691.067,280.274 690.513,281.347 690.131,282.504C689.781,283.63 689.634,284.809 689.692,286.042C689.718,287.243 689.935,288.418 690.342,289.567C690.719,290.684 691.239,291.757 691.902,292.788C692.598,293.788 693.359,294.727 694.185,295.604L709.555,311.939C710.38,312.817 711.271,313.633 712.227,314.388C713.216,315.113 714.271,315.714 715.393,316.19C716.485,316.633 717.644,316.921 718.872,317.053C720.069,317.153 721.24,317.062 722.385,316.781C723.563,316.47 724.667,315.982 725.698,315.319C726.759,314.688 727.728,313.96 728.606,313.134ZM1066.05,927.95C1067.17,927.664 1068.25,927.275 1069.28,926.783C1070.31,926.335 1071.27,925.746 1072.14,925.017C1073.02,924.288 1073.74,923.435 1074.32,922.458C1074.95,921.47 1075.4,920.434 1075.67,919.351C1075.94,918.224 1076.06,917.086 1076.05,915.939C1076.03,914.792 1075.88,913.656 1075.6,912.531L1075.48,912.077L1068.93,913.746L1068.99,914.005C1069.21,914.87 1069.3,915.747 1069.25,916.635C1069.24,917.511 1069.04,918.367 1068.66,919.203C1068.3,919.984 1067.75,920.63 1067.01,921.142C1066.27,921.654 1065.46,922.021 1064.6,922.241C1063.64,922.483 1062.68,922.52 1061.72,922.351C1060.75,922.139 1059.9,921.709 1059.18,921.063C1058.46,920.416 1057.9,919.661 1057.5,918.797C1057.09,917.889 1056.76,916.96 1056.51,916.008L1050.98,894.273C1050.74,893.321 1050.59,892.369 1050.53,891.417C1050.46,890.421 1050.58,889.468 1050.9,888.558C1051.23,887.647 1051.77,886.887 1052.54,886.277C1053.29,885.624 1054.14,885.177 1055.1,884.934C1055.96,884.714 1056.84,884.651 1057.74,884.744C1058.64,884.838 1059.44,885.164 1060.13,885.724C1060.86,886.23 1061.44,886.866 1061.86,887.633C1062.33,888.388 1062.67,889.199 1062.89,890.064L1062.96,890.324L1069.52,888.655L1069.4,888.201C1069.11,887.076 1068.7,886.006 1068.17,884.991C1067.63,883.976 1066.98,883.058 1066.22,882.239C1065.45,881.376 1064.55,880.66 1063.53,880.091C1062.56,879.511 1061.51,879.109 1060.39,878.887C1059.28,878.664 1058.16,878.604 1057.03,878.707C1055.9,878.766 1054.77,878.938 1053.64,879.225C1052.47,879.522 1051.34,879.949 1050.24,880.506C1049.12,881.02 1048.12,881.69 1047.22,882.517C1046.37,883.332 1045.67,884.293 1045.13,885.4C1044.57,886.463 1044.19,887.596 1043.99,888.799C1043.78,889.958 1043.71,891.149 1043.79,892.372C1043.92,893.584 1044.13,894.774 1044.43,895.942L1049.96,917.677C1050.26,918.845 1050.64,919.991 1051.11,921.114C1051.63,922.227 1052.26,923.264 1053.01,924.224C1053.75,925.141 1054.62,925.954 1055.63,926.664C1056.63,927.331 1057.7,927.819 1058.84,928.128C1060.02,928.426 1061.22,928.534 1062.45,928.453C1063.68,928.415 1064.88,928.248 1066.05,927.95ZM808.577,255.376L829.67,245.168L827.104,239.864L819.57,243.51L803.267,209.822L810.8,206.176L808.234,200.873L787.141,211.081L789.708,216.384L797.241,212.738L813.544,246.427L806.011,250.072L808.577,255.376Z"/>
            </g>
        </g>
    </g>
</svg>
