<?xml version="1.0" encoding="UTF-8" standalone="no"?>
<!DOCTYPE svg PUBLIC "-//W3C//DTD SVG 1.1//EN" "http://www.w3.org/Graphics/SVG/1.1/DTD/svg11.dtd">
<svg width="100%" height="100%" viewBox="0 0 764 764" version="1.1" xmlns="http://www.w3.org/2000/svg" xmlns:xlink="http://www.w3.org/1999/xlink" xml:space="preserve" xmlns:serif="http://www.serif.com/" style="fill-rule:evenodd;clip-rule:evenodd;stroke-linejoin:round;stroke-miterlimit:2;">
    <g transform="matrix(1,0,0,1,-61.241,-61.241)">
        <g transform="matrix(1.16047,0,0,1.16047,-671.173,-208.726)">
            <g transform="matrix(0.823732,0,0,0.823732,165.892,104.793)">
                <path d="M964.036,155.2C1184.38,155.2 1363.27,334.092 1363.27,554.436C1363.27,774.781 1184.38,953.673 964.036,953.673C743.692,953.673 564.8,774.781 564.8,554.436C564.8,334.092 743.692,155.2 964.036,155.2ZM964.036,228.473C784.132,228.473 638.073,374.532 638.073,554.436C638.073,734.34 784.132,880.4 964.036,880.4C1143.94,880.4 1290,734.34 1290,554.436C1290,374.532 1143.94,228.473 964.036,228.473ZM976.642,709.889C973.294,709.889 969.947,709.541 966.599,708.843C963.391,708.285 960.392,707.169 957.603,705.496C954.813,703.822 952.442,701.73 950.489,699.219C948.536,696.708 947.072,693.919 946.095,690.85C945.119,687.642 944.631,684.364 944.631,681.016C944.631,677.529 944.979,674.042 945.677,670.555L953.418,623.271L932.914,623.271L932.914,599.419L986.475,599.419L973.922,674.531L973.504,678.715C973.504,680.11 973.783,681.365 974.341,682.481C975.038,683.597 975.945,684.504 977.06,685.201C978.176,685.759 979.432,686.038 980.826,686.038C982.5,686.038 984.104,685.55 985.639,684.573C987.173,683.597 988.358,682.411 989.195,681.016C990.172,679.482 990.939,677.948 991.497,676.414C992.055,674.74 992.473,673.136 992.752,671.601L992.752,671.183L1015.98,672.02L1015.98,672.857C1015.42,675.925 1014.58,678.994 1013.47,682.063C1012.49,685.131 1011.09,688.13 1009.28,691.059C1007.61,693.988 1005.59,696.708 1003.21,699.219C1000.84,701.59 998.192,703.613 995.263,705.286C992.473,706.96 989.474,708.146 986.266,708.843C983.058,709.541 979.85,709.889 976.642,709.889ZM820.143,708.215L845.459,554.436L874.332,554.436L864.917,611.763C866.311,609.671 867.776,607.788 869.31,606.114C870.984,604.301 872.797,602.767 874.75,601.512C876.842,600.117 879.004,599.14 881.236,598.582C883.468,598.024 885.7,597.746 887.931,597.746C891.558,597.746 894.975,598.443 898.183,599.838C901.391,601.093 904.041,603.046 906.134,605.696C908.226,608.346 909.76,611.345 910.737,614.693C911.852,617.901 912.55,621.318 912.829,624.945C913.108,628.432 913.108,631.988 912.829,635.615C912.55,639.242 912.131,642.868 911.573,646.495L901.322,708.215L872.449,708.215L883.328,642.519C883.607,640.985 883.817,639.52 883.956,638.126C884.095,636.731 884.095,635.336 883.956,633.941C883.956,632.407 883.817,630.942 883.538,629.547C883.398,628.153 882.98,626.897 882.282,625.781C881.585,624.526 880.678,623.55 879.562,622.852C878.446,622.015 877.121,621.597 875.587,621.597C873.774,621.597 871.891,622.015 869.938,622.852C868.125,623.55 866.59,624.666 865.335,626.2C864.08,627.734 863.034,629.408 862.197,631.221C861.499,633.035 861.011,634.848 860.732,636.661L849.016,708.215L820.143,708.215ZM893.266,511.127C889.082,511.127 884.967,510.709 880.922,509.872C876.877,509.035 873.181,507.64 869.833,505.687C866.486,503.595 863.696,500.945 861.464,497.737C859.233,494.529 857.559,490.972 856.443,487.066C855.327,483.161 854.769,479.186 854.769,475.141C854.909,470.956 855.327,466.702 856.025,462.378L860.209,437.271C860.767,433.924 861.604,430.506 862.72,427.019C863.975,423.532 865.649,420.254 867.741,417.186C869.833,414.117 872.344,411.397 875.273,409.026C878.202,406.515 881.341,404.493 884.688,402.959C888.175,401.424 891.662,400.378 895.149,399.82C898.636,399.262 902.124,398.983 905.611,398.983C909.795,398.983 913.91,399.402 917.955,400.239C922,401.076 925.696,402.54 929.044,404.632C932.391,406.585 935.181,409.165 937.413,412.374C939.784,415.582 941.458,419.138 942.434,423.044C943.55,426.949 944.108,430.994 944.108,435.179C944.108,439.224 943.759,443.408 943.062,447.732L938.877,472.839C938.319,476.187 937.413,479.604 936.157,483.091C934.902,486.578 933.228,489.856 931.136,492.925C929.044,495.993 926.533,498.783 923.604,501.294C920.675,503.665 917.536,505.617 914.189,507.152C910.841,508.686 907.354,509.732 903.728,510.29C900.241,510.848 896.753,511.127 893.266,511.127ZM893.266,487.276C895.498,487.276 897.73,486.787 899.962,485.811C902.193,484.695 904.007,483.231 905.401,481.417C906.936,479.604 908.052,477.651 908.749,475.559C909.586,473.327 910.214,471.096 910.632,468.864L914.816,443.757C915.095,442.223 915.235,440.688 915.235,439.154C915.374,437.62 915.374,436.155 915.235,434.76C915.235,433.226 915.026,431.762 914.607,430.367C914.328,428.972 913.77,427.717 912.933,426.601C912.236,425.345 911.19,424.439 909.795,423.881C908.54,423.183 907.145,422.835 905.611,422.835C903.379,422.835 901.147,423.393 898.915,424.509C896.823,425.485 895.01,426.88 893.476,428.693C891.941,430.506 890.756,432.529 889.919,434.76C889.221,436.853 888.733,439.015 888.454,441.246L884.27,466.353C883.991,467.888 883.782,469.422 883.642,470.956C883.503,472.49 883.503,474.025 883.642,475.559C883.782,476.954 883.991,478.349 884.27,479.744C884.688,481.138 885.246,482.463 885.944,483.719C886.78,484.835 887.827,485.741 889.082,486.439C890.337,486.997 891.732,487.276 893.266,487.276ZM1157.83,709.889C1153.51,709.889 1149.25,709.471 1145.07,708.634C1141.02,707.937 1137.26,706.611 1133.77,704.659C1130.42,702.566 1127.56,699.916 1125.19,696.708C1122.82,693.5 1121.01,690.013 1119.75,686.247C1118.63,682.342 1118.08,678.297 1118.08,674.112C1118.08,669.788 1118.43,665.464 1119.12,661.14L1123.31,636.033C1123.87,632.686 1124.7,629.269 1125.82,625.781C1127.07,622.294 1128.75,619.017 1130.84,615.948C1132.93,612.879 1135.44,610.159 1138.37,607.788C1141.44,605.278 1144.65,603.255 1148,601.721C1151.48,600.186 1154.97,599.14 1158.46,598.582C1161.94,598.024 1165.43,597.746 1168.92,597.746C1172.68,597.746 1176.38,598.024 1180.01,598.582C1183.63,599.001 1187.05,599.907 1190.26,601.302C1193.47,602.558 1196.4,604.301 1199.05,606.533C1201.84,608.765 1204,611.415 1205.53,614.483C1207.07,617.552 1207.97,620.9 1208.25,624.526C1208.67,628.153 1208.53,631.779 1207.83,635.406C1207.28,638.893 1206.23,642.31 1204.69,645.658C1203.3,648.866 1201.35,651.865 1198.84,654.654C1196.33,657.304 1193.47,659.536 1190.26,661.349C1187.19,663.163 1183.91,664.627 1180.43,665.743C1177.08,666.72 1173.66,667.417 1170.17,667.835C1166.69,668.114 1163.27,668.254 1159.92,668.254L1152.39,668.254C1150.02,668.114 1147.65,667.905 1145.28,667.626C1145,669.997 1145,672.438 1145.28,674.949C1145.56,677.32 1146.32,679.482 1147.58,681.435C1148.83,683.388 1150.51,684.922 1152.6,686.038C1154.83,687.014 1157.2,687.502 1159.71,687.502C1161.81,687.502 1163.97,687.084 1166.2,686.247C1168.43,685.41 1170.38,684.225 1172.06,682.69C1173.87,681.016 1175.33,679.203 1176.45,677.25C1177.71,675.158 1178.68,673.066 1179.38,670.974L1203.23,679.343C1201.28,683.806 1198.77,688.06 1195.7,692.105C1192.63,696.011 1189,699.358 1184.82,702.148C1180.77,704.938 1176.38,706.96 1171.64,708.215C1166.9,709.331 1162.29,709.889 1157.83,709.889ZM1159.92,645.867C1162.15,645.867 1164.38,645.658 1166.62,645.239C1168.99,644.821 1171.22,644.054 1173.31,642.938C1175.4,641.822 1177.15,640.288 1178.54,638.335C1179.94,636.382 1180.84,634.29 1181.26,632.058C1181.54,630.245 1181.47,628.571 1181.05,627.037C1180.63,625.363 1179.73,624.038 1178.33,623.062C1177.08,621.946 1175.61,621.179 1173.94,620.76C1172.27,620.342 1170.59,620.132 1168.92,620.132C1166.55,620.132 1164.18,620.69 1161.81,621.806C1159.43,622.783 1157.34,624.247 1155.53,626.2C1153.85,628.153 1152.6,630.315 1151.76,632.686C1150.92,635.057 1150.3,637.428 1149.88,639.799L1149.04,645.239C1150.72,645.379 1152.46,645.518 1154.27,645.658C1156.23,645.797 1158.11,645.867 1159.92,645.867ZM1068.7,709.889C1065.35,709.889 1062.01,709.541 1058.66,708.843C1055.45,708.285 1052.45,707.169 1049.66,705.496C1046.87,703.822 1044.5,701.73 1042.55,699.219C1040.6,696.708 1039.13,693.919 1038.15,690.85C1037.18,687.642 1036.69,684.364 1036.69,681.016C1036.69,677.529 1037.04,674.042 1037.74,670.555L1053.01,578.288L1032.51,578.288L1032.3,554.436L1085.86,554.436L1065.98,674.531L1065.56,678.715C1065.56,680.11 1065.84,681.365 1066.4,682.481C1067.1,683.597 1068,684.504 1069.12,685.201C1070.24,685.759 1071.49,686.038 1072.88,686.038C1074.56,686.038 1076.16,685.55 1077.7,684.573C1079.23,683.597 1080.42,682.411 1081.25,681.016C1082.23,679.482 1083,677.948 1083.56,676.414C1084.11,674.74 1084.53,673.136 1084.81,671.601L1084.81,671.183L1108.03,672.02L1108.03,672.857C1107.48,675.925 1106.64,678.994 1105.52,682.063C1104.55,685.131 1103.15,688.13 1101.34,691.059C1099.66,693.988 1097.64,696.708 1095.27,699.219C1092.9,701.59 1090.25,703.613 1087.32,705.286C1084.53,706.96 1081.53,708.146 1078.33,708.843C1075.12,709.541 1071.91,709.889 1068.7,709.889ZM737.813,554.436L737.813,530.585L753.087,530.585C755.318,530.585 757.55,530.097 759.782,529.12C762.014,528.283 763.966,526.889 765.64,524.936C767.314,523.123 768.5,521.1 769.197,518.868C770.034,516.776 770.592,514.614 770.871,512.382L784.261,432.041L759.991,432.041L760.2,408.189L788.236,408.189L790.538,393.962C791.096,390.475 792.002,386.988 793.258,383.501C794.513,380.014 796.187,376.736 798.279,373.667C800.371,370.599 802.952,367.879 806.02,365.508C809.089,362.997 812.297,361.044 815.645,359.649C818.992,358.115 822.409,357.069 825.896,356.511C829.523,355.953 833.08,355.674 836.567,355.674L851.84,355.674L852.049,379.525L836.776,379.525C834.544,379.525 832.243,380.014 829.872,380.99C827.64,381.827 825.687,383.222 824.013,385.175C822.479,386.988 821.294,389.01 820.457,391.242C819.759,393.334 819.201,395.496 818.783,397.728L817.109,408.189L841.379,408.189L841.17,432.041L813.134,432.041L799.116,516.148C798.558,519.635 797.651,523.123 796.396,526.61C795.28,530.097 793.676,533.374 791.584,536.443C789.492,539.512 786.911,542.232 783.843,544.603C780.774,547.113 777.496,549.066 774.009,550.461C770.661,551.995 767.174,553.041 763.548,553.599C760.061,554.157 756.574,554.436 753.087,554.436L737.813,554.436ZM956.661,509.453L974.654,400.657L1003.53,400.657L1000.6,417.813C1001.99,415.303 1003.67,412.862 1005.62,410.491C1007.57,408.119 1009.66,406.097 1011.9,404.423C1014.27,402.61 1016.85,401.285 1019.64,400.448C1022.57,399.471 1025.36,398.983 1028.01,398.983C1030.8,398.983 1033.38,399.471 1035.75,400.448C1038.12,401.424 1040,402.959 1041.4,405.051C1042.93,407.003 1044.05,409.235 1044.74,411.746C1045.44,414.257 1045.86,416.837 1046,419.487C1046.14,422.137 1046.07,424.857 1045.79,427.647C1045.51,430.297 1045.16,432.947 1044.74,435.597L1015.87,435.597C1016.15,434.203 1016.29,432.877 1016.29,431.622C1016.43,430.227 1016.36,428.902 1016.08,427.647C1015.8,426.252 1015.17,425.136 1014.2,424.299C1013.36,423.323 1012.25,422.835 1010.85,422.835C1009.18,422.835 1007.57,423.323 1006.04,424.299C1004.64,425.276 1003.46,426.461 1002.48,427.856C1001.5,429.251 1000.67,430.785 999.97,432.459C999.273,433.993 998.645,435.528 998.087,437.062C997.529,438.596 997.041,440.2 996.623,441.874C996.344,443.408 996.065,445.012 995.786,446.686L985.534,509.453L956.661,509.453ZM1110.86,511.127C1107.37,511.127 1103.95,510.639 1100.61,509.662C1097.26,508.686 1094.33,507.152 1091.82,505.06C1089.31,502.828 1087.29,500.247 1085.75,497.318C1084.36,494.25 1083.31,491.042 1082.61,487.694C1081.92,484.207 1081.5,480.72 1081.36,477.233C1081.22,473.746 1081.5,470.189 1082.19,466.562C1082.75,462.796 1083.8,459.1 1085.33,455.474C1086.87,451.708 1088.75,448.151 1090.98,444.803C1093.21,441.456 1095.8,438.387 1098.72,435.597C1101.79,432.668 1104.93,430.018 1108.14,427.647L1104.79,418.023C1103.67,414.815 1102.77,411.537 1102.07,408.189C1101.37,404.842 1100.89,401.424 1100.61,397.937C1100.33,394.311 1100.54,390.684 1101.24,387.058C1101.93,382.734 1103.26,378.479 1105.21,374.295C1107.3,370.11 1109.95,366.414 1113.16,363.206C1116.51,359.998 1120.41,357.697 1124.88,356.302C1129.34,354.767 1133.66,354 1137.85,354C1141.48,354 1144.96,354.419 1148.31,355.256C1151.66,355.953 1154.59,357.278 1157.1,359.231C1159.75,361.044 1161.98,363.346 1163.79,366.135C1165.61,368.925 1166.93,371.993 1167.77,375.341C1168.6,378.549 1169.09,381.897 1169.23,385.384C1169.51,388.731 1169.37,392.149 1168.81,395.636C1168.12,399.681 1166.93,403.656 1165.26,407.561C1163.58,411.327 1161.49,414.884 1158.98,418.232C1156.47,421.579 1153.54,424.718 1150.19,427.647C1146.99,430.437 1143.71,433.087 1140.36,435.597L1140.36,436.225C1140.5,436.365 1140.64,436.574 1140.78,436.853L1147.05,454.009L1154.8,440.2L1180.53,440.2L1161.07,474.722C1160.51,475.977 1159.89,477.233 1159.19,478.488C1158.49,479.604 1157.86,480.72 1157.31,481.836L1167.14,509.453L1138.06,509.453L1133.87,498.364C1131.64,501.572 1128.71,504.362 1125.09,506.733C1121.6,509.105 1118.04,510.499 1114.42,510.918L1113.16,511.127L1110.86,511.127ZM1130.94,411.118C1133.59,408.608 1135.76,405.748 1137.43,402.54C1139.24,399.192 1140.43,395.775 1140.99,392.288C1141.27,391.312 1141.4,390.405 1141.4,389.568C1141.55,388.592 1141.62,387.615 1141.62,386.639C1141.62,385.663 1141.55,384.686 1141.4,383.71C1141.4,382.734 1141.34,381.827 1141.2,380.99C1141.06,380.014 1140.71,379.177 1140.15,378.479C1139.59,377.642 1138.83,377.224 1137.85,377.224C1136.45,377.224 1135.2,377.782 1134.08,378.898C1132.97,380.014 1132.06,381.269 1131.36,382.664C1130.66,383.919 1130.11,385.244 1129.69,386.639C1129.27,388.034 1128.99,389.429 1128.85,390.824C1128.15,394.45 1128.02,397.937 1128.43,401.285C1128.99,404.632 1129.83,407.91 1130.94,411.118ZM1120.69,487.903C1122.09,487.903 1123.48,487.624 1124.88,487.066C1126.41,486.369 1127.81,485.462 1129.06,484.346L1117.76,453.591C1115.67,455.962 1113.93,458.542 1112.53,461.332C1111.28,463.982 1110.37,466.702 1109.81,469.492C1109.53,471.584 1109.46,473.746 1109.6,475.977C1109.74,478.07 1110.16,480.022 1110.86,481.836C1111.7,483.649 1112.95,485.114 1114.62,486.229C1116.44,487.345 1118.46,487.903 1120.69,487.903ZM977.897,586.866C975.945,586.866 973.992,586.657 972.039,586.238C970.086,585.82 968.273,585.122 966.599,584.146C964.925,583.03 963.531,581.775 962.415,580.38C961.438,578.846 960.601,577.172 959.904,575.359C959.346,573.406 958.997,571.453 958.858,569.5C958.858,567.548 958.997,565.525 959.276,563.433C959.695,561.341 960.392,559.388 961.369,557.575C962.485,555.622 963.879,554.018 965.553,552.762C967.366,551.368 969.319,550.461 971.411,550.043C973.643,549.485 975.805,549.206 977.897,549.206C979.85,549.206 981.803,549.415 983.756,549.833C985.708,550.252 987.452,551.019 988.986,552.135C990.66,553.111 992.055,554.367 993.171,555.901C994.286,557.296 995.123,558.969 995.681,560.922C996.239,562.735 996.518,564.618 996.518,566.571C996.658,568.524 996.588,570.546 996.309,572.639C996.03,574.731 995.333,576.753 994.217,578.706C993.101,580.519 991.636,582.124 989.823,583.518C988.149,584.774 986.266,585.68 984.174,586.238C982.082,586.657 979.99,586.866 977.897,586.866ZM740.01,708.215L719.716,708.215L719.925,599.419L748.17,599.419L737.081,677.25L752.773,629.966L772.858,629.966L772.649,677.25L787.504,599.419L815.749,599.419L779.972,708.215L759.677,708.215L758.422,656.537L740.01,708.215Z"/>
            </g>
        </g>
    </g>
</svg>
